<svg width="176" height="64" viewBox="0 0 176 64" fill="none" xmlns="http://www.w3.org/2000/svg">
<path d="M0 62.496V0H16.128C20.832 0 23.184 2.632 23.184 7.896V22.008C23.184 23.856 22.736 25.34 21.84 26.46C20.944 27.58 20.02 28.28 19.068 28.56C20.244 28.84 21.364 29.568 22.428 30.744C23.492 31.92 24.024 33.628 24.024 35.868V53.004C24.024 59.332 21.364 62.496 16.044 62.496H0ZM11.424 7.896H10.668V25.704H11.424C12.264 25.704 12.684 25.172 12.684 24.108V9.408C12.684 8.848 12.6 8.456 12.432 8.232C12.264 8.008 11.928 7.896 11.424 7.896ZM11.676 33.432H10.668V54.348H11.676C12.516 54.348 12.936 53.816 12.936 52.752V35.112C12.936 33.992 12.516 33.432 11.676 33.432Z" fill="#141414"/>
<path d="M37.8398 42.084L36.5798 18.312L35.3198 42.084H37.8398ZM38.9318 62.496L38.3438 51.24H34.7318L34.1438 62.496H24.9878L30.1958 0H43.6358L49.2638 62.496H38.9318Z" fill="#141414"/>
<path d="M50.4292 62.496V0H66.5572C71.2612 0 73.6132 2.632 73.6132 7.896V22.008C73.6132 23.856 73.1652 25.34 72.2692 26.46C71.3732 27.58 70.4492 28.28 69.4972 28.56C70.6732 28.84 71.7932 29.568 72.8572 30.744C73.9212 31.92 74.4532 33.628 74.4532 35.868V53.004C74.4532 59.332 71.7932 62.496 66.4732 62.496H50.4292ZM61.8532 7.896H61.0972V25.704H61.8532C62.6932 25.704 63.1132 25.172 63.1132 24.108V9.408C63.1132 8.848 63.0292 8.456 62.8612 8.232C62.6932 8.008 62.3572 7.896 61.8532 7.896ZM62.1052 33.432H61.0972V54.348H62.1052C62.9452 54.348 63.3652 53.816 63.3652 52.752V35.112C63.3652 33.992 62.9452 33.432 62.1052 33.432Z" fill="#141414"/>
<path d="M76.3408 0H94.3168V9.576H86.7568V24.78H93.1408V34.692H86.7568V52.752H94.5688V62.496H76.3408V0Z" fill="#141414"/>
<path d="M96.5943 0H116.166V8.736L107.682 52.92H116.586V62.496H96.2583V53.76L104.574 9.492H96.5943V0Z" fill="#141414"/>
<path d="M129.07 0V62.496H118.402V0H129.07Z" fill="#141414"/>
<path d="M131.189 0H141.941L146.057 33.852L145.973 0H154.793V62.496H144.965L140.009 25.032L140.093 62.496H131.189V0Z" fill="#141414"/>
<path d="M156.854 0H174.83V9.576H167.27V24.78H173.654V34.692H167.27V52.752H175.082V62.496H156.854V0Z" fill="#141414"/>
</svg>
