<svg xmlns="http://www.w3.org/2000/svg" fill="none" viewBox="0 0 189 32">
          <defs></defs>
          <path fill="#F2B4C5" d="M66.396 10.177c-.114-3.727-3.258-6.686-7.1-6.691H9.907c-3.84 0-6.99 2.964-7.104 6.69v11.562c.083 3.747 3.237 6.746 7.105 6.751h49.39c3.867 0 7.021-3 7.104-6.751l-.005-11.561z"></path>
          <path fill="#000" d="M54.1 14.445c-1.805-1.194-4.26-.742-5.491 1.008-1.23 1.75-.765 4.133 1.04 5.327a4.054 4.054 0 004.451 0v.466h2.244v-7.262H54.1v.461zm-2.042 5.05c-1.066-.054-1.883-.937-1.826-1.97.057-1.034.967-1.826 2.032-1.77 1.024.054 1.826.872 1.826 1.87-.026 1.063-.936 1.896-2.032 1.87zM23.35 10.744h-2.347v10.502h2.347V10.744zM43.94 13.778c-.884 0-1.743.27-2.311 1.013v-.812h-2.234v7.267h2.26V17.43c-.068-.843.578-1.58 1.447-1.65.078-.006.155-.006.233 0 .987 0 1.551.571 1.551 1.63v3.836h2.239v-4.609c0-1.69-1.386-2.839-3.19-2.839M30.445 14.445c-1.805-1.194-4.261-.742-5.492 1.008-1.23 1.75-.765 4.133 1.04 5.327a4.053 4.053 0 004.452 0v.466h2.238v-7.262h-2.238v.461zm-2.043 5.05c-1.065-.054-1.882-.937-1.825-1.97.057-1.034.967-1.826 2.032-1.77 1.024.054 1.825.872 1.825 1.87-.03 1.063-.94 1.896-2.032 1.87zM36.153 14.922v-.943h-2.296v7.267h2.301v-3.39c0-1.144 1.277-1.756 2.166-1.756h.026v-2.116a2.834 2.834 0 00-2.197.938zM58.722 18.668c-.775 0-1.406.612-1.406 1.365 0 .752.631 1.364 1.406 1.364.776 0 1.407-.612 1.407-1.364 0-.753-.63-1.365-1.407-1.365zM19.385 10.744h-2.44c.004 1.916-.932 3.716-2.519 4.86l-.962.702 3.744 4.95h3.071l-3.438-4.544c1.639-1.585 2.554-3.731 2.544-5.968zM13.175 10.744h-2.436V21.25h2.436V10.744zM87.905 8.677v14.465h-3.557v-5.968h-5.403v5.968h-3.537V8.677h3.537v5.452h5.403V8.677h3.557zM97.849 8.677H94.57l-5.827 14.465h3.832l1.028-2.728h5.223l1.029 2.728h3.831L97.848 8.677zM94.74 17.39l1.474-3.897 1.473 3.887-2.947.01zM115.764 8.677V17.7c0 1.796-.548 3.195-1.628 4.158-1.081.963-2.586 1.43-4.483 1.43-1.898 0-3.382-.487-4.442-1.445-1.06-.958-1.608-2.362-1.608-4.158V8.677h3.537v8.818c0 .923.222 1.62.667 2.076a2.443 2.443 0 001.851.682 2.547 2.547 0 001.887-.677c.455-.456.683-1.143.683-2.071V8.677h3.536zM128.06 20.098v3.044h-10.77V8.677h3.531v11.42h7.239zM132.972 8.677h-3.531v14.465h3.531V8.677zM146.83 12.86a6.109 6.109 0 00-1.474-2.287c-1.308-1.259-3.139-1.896-5.434-1.896h-5.305v14.465h5.299c2.301 0 4.127-.637 5.435-1.896 1.313-1.258 1.97-3.054 1.97-5.331a8.653 8.653 0 00-.491-3.055zm-8.677-1.143h1.769c1.215 0 2.176.346 2.854 1.028.677.682 1.024 1.75 1.024 3.16 0 1.41-.347 2.467-1.024 3.144-.678.678-1.634 1.029-2.854 1.029h-1.769v-8.361zM155.738 8.677h-3.283l-5.832 14.465h3.831l1.029-2.728h5.222l1.029 2.728h3.832l-5.828-14.465zm-3.112 8.712l1.473-3.887 1.458 3.887h-2.931zM172.977 8.677l-5.382 9.33v5.135h-3.532v-5.136l-5.377-9.329h3.945l3.19 5.638 3.206-5.638h3.95zM178.086 8.677v1.199h-1.396v3.902h-1.365V9.876h-1.402V8.677h4.163zM183.629 8.677v5.101H182.3v-2.99l-1.04 1.51h-.517l-1.044-1.51v2.99h-1.324v-5.1h1.345l1.277 1.86 1.303-1.86h1.329z"></path>
        </svg>