<svg xmlns="http://www.w3.org/2000/svg" fill="none" viewBox="0 0 68 16">
  <path fill="#141414" d="M66.064 11.848c-1.069 0-1.935.913-1.935 2.04 0 1.126.866 2.04 1.935 2.04 1.07 0 1.936-.914 1.936-2.04 0-1.127-.867-2.04-1.936-2.04ZM59.706 5.537v-.695h3.084V15.7h-3.084v-.694A5.216 5.216 0 0 1 56.65 16c-3.002 0-5.436-2.565-5.436-5.729s2.434-5.729 5.436-5.729c1.134 0 2.186.368 3.057.995Zm-2.805 7.528a2.794 2.794 0 1 0 .001-5.588 2.794 2.794 0 0 0 0 5.588ZM45.732 4.55c-1.232 0-2.398.403-3.178 1.515V4.842h-3.07V15.7h3.108V9.994c0-1.651 1.05-2.46 2.315-2.46 1.356 0 2.135.854 2.135 2.437V15.7h3.08V8.794c0-2.527-1.905-4.245-4.39-4.245ZM35.022 6.255V4.841h-3.158V15.7h3.165v-5.07c0-1.71 1.759-2.63 2.98-2.63l.036.002v-3.16c-1.253 0-2.405.566-3.023 1.414ZM27.166 5.537v-.695h3.085V15.7h-3.085v-.694A5.216 5.216 0 0 1 24.11 16c-3.002 0-5.436-2.565-5.436-5.729s2.434-5.729 5.436-5.729c1.134 0 2.186.368 3.057.995Zm-2.805 7.528a2.794 2.794 0 1 0 .002-5.589 2.794 2.794 0 0 0-.002 5.589ZM14.181 15.7h3.228V.003h-3.228V15.7ZM11.956 0H8.611c0 2.89-1.26 5.542-3.459 7.278L3.827 8.324l5.135 7.38h4.223L8.459 8.913C10.7 6.563 11.956 3.4 11.956 0ZM0 15.703h3.418V0H0v15.703Z"/>
</svg>
